<svg xmlns="http://www.w3.org/2000/svg" id="theme-logo" data-name="logo corder" viewBox="0 0 595.28 262.49">
    <style>
      .corder-logo-teal{fill:#00a19a}.corder-logo-green1{fill:#95c11f}.corder-logo-yellow{fill:#dedc00}.corder-logo-green2{fill:#3aaa35}
    </style>
  <defs>
    <linearGradient id="corderLogoGradient" x1="0" x2="0" y1="0" y2="1">
      <stop offset="0%" stop-color="#fff" stop-opacity="0"/>
      <stop offset="20%" stop-color="#fff" stop-opacity="0"/>
      <stop offset="50%" stop-color="#95c11f" stop-opacity=".5"/>
      <stop offset="75%" stop-color="#dedc00"/>
      <stop offset="100%" stop-color="#dedc00"/>
    </linearGradient>
  </defs>
  <g id="corder">
    <path d="M183.57 142.54a35.94 35.94 0 012.89-14.43 37 37 0 0119.7-19.62 37.36 37.36 0 0128.77 0 38.44 38.44 0 0111.79 7.92 36.69 36.69 0 018 11.7 37.39 37.39 0 010 28.78 37.59 37.59 0 01-19.79 19.86 37.25 37.25 0 01-28.77 0 36.34 36.34 0 01-11.79-8 38.13 38.13 0 01-7.91-11.87 36.07 36.07 0 01-2.89-14.35m14.51 0a22.47 22.47 0 006.51 15.91 22.58 22.58 0 0015.92 6.56 22.3 22.3 0 0022.42-22.43 21.8 21.8 0 00-1.73-8.65 22.44 22.44 0 00-4.78-7.09 22.65 22.65 0 00-31.83 0 22.44 22.44 0 00-4.78 7.09 21.8 21.8 0 00-1.73 8.65M309.71 105.28V120h-7.42a21.81 21.81 0 00-8.66 1.73 22.44 22.44 0 00-11.87 11.88 21.63 21.63 0 00-1.73 8.65v37.1h-14.84v-37.1a36 36 0 012.88-14.42 36.62 36.62 0 018-11.71 38.22 38.22 0 0111.87-7.92 36.24 36.24 0 0114.35-2.88zM390.82 75.6v66.61a36.24 36.24 0 01-2.88 14.35 38 38 0 01-7.94 11.87 36.94 36.94 0 01-40.48 8 37.37 37.37 0 01-19.86-19.87 37.25 37.25 0 010-28.77 36.59 36.59 0 018-11.71 38.33 38.33 0 0111.87-7.92 36.24 36.24 0 0114.35-2.88h22.26V75.6zm-36.93 89a21.76 21.76 0 008.65-1.73 22.38 22.38 0 0013.61-20.7V120h-22.26a22.42 22.42 0 00-8.74 1.73 22.23 22.23 0 00-11.95 11.88 21.63 21.63 0 00-1.73 8.65 22.29 22.29 0 0022.42 22.43M519.1 105.28V120h-7.42a21.81 21.81 0 00-8.66 1.73 22.44 22.44 0 00-11.87 11.88 21.8 21.8 0 00-1.73 8.65v37.1h-14.84v-37.1a36 36 0 012.88-14.42 36.62 36.62 0 018-11.71 38.22 38.22 0 0111.87-7.92 36.24 36.24 0 0114.35-2.88z" class="corder-logo-teal"/>
    <path d="M438.68 86.74a2.73 2.73 0 10-2.68 2.73 2.73 2.73 0 002.73-2.73" class="corder-logo-yellow"/>
    <path d="M432.83 69.43a1.24 1.24 0 111.24 1.25 1.25 1.25 0 01-1.24-1.25" class="corder-logo-teal"/>
    <path d="M452.87 63a2.74 2.74 0 10-2.74 2.73 2.74 2.74 0 002.74-2.73" class="corder-logo-green2"/>
    <path d="M459.13 74.65a1.74 1.74 0 10-1.73 1.74 1.73 1.73 0 001.73-1.74" class="corder-logo-teal"/>
    <path d="M465.59 85.09a1.74 1.74 0 10-1.74 1.74 1.73 1.73 0 001.74-1.74M480.5 42.85a1.74 1.74 0 10-1.74 1.74 1.74 1.74 0 001.74-1.74M467.58 54.53a1.49 1.49 0 101.49-1.53 1.49 1.49 0 00-1.49 1.49" class="corder-logo-green2"/>
    <path d="M484.26 59.35c-1.65.59-3.7 2.45-5.87 1.23 1.05-5.41 8.53-3.28 9.53-8.75 1.7 6.88-4 15-9 10.49 2.08-.63 4.12-1.31 5.33-3" class="corder-logo-teal"/>
    <path d="M496.29 55.2c-.48-.92-.6.81-1.77.49-.62-3 2.57-3.8 3.53-5.89-.46-1.47.63-1.58.45 0 .6 3.2.1 5.76-2.51 7.1-1.63-.07-.71-1.42.3-1.66" class="corder-logo-yellow"/>
    <path d="M493.26 38.77c-.1-1.65-1.92-3.27-3.7-3.89 2.84-2.79 5.47 1.9 5.45 5.45a14 14 0 01-.78 3.89c.14-4.65-5.85-4.09-5.26-8.56a6.37 6.37 0 014.29 3.11" class="corder-logo-green1"/>
    <path d="M461.13 63.38c2.63-.19 6.34-2.06 9 .59-3.71 7.39-13.67 1.29-17.33 8.81.33-10.65 11.85-20.14 17.25-11.55-3.26.08-6.5.24-8.91 2.15" class="corder-logo-yellow"/>
    <path d="M421.57 146.25l-6 6a22.33 22.33 0 0116.57-31.82 22.12 22.12 0 0113.28 2.14q-2.31 2.31-6.52 6.43t-8.73 8.66l-8.58 8.57m29.93 12.12a22 22 0 01-25.56 4.29L467 121.6l-5.11-5.11a36.1 36.1 0 00-12.29-8.16 41.9 41.9 0 00-2.37-.85c3.91-1-.47-.89 4.95-3.51 1.43-.68-10 3.26-7.19 1.32 2.62-1.81 6.47-2.24 7.46-5.83s-2.82-5.51-2.51-9.18c-1.08 2.1-.7 4.39-1.82 6.58-1.35 2.69-4.3 4.62-5.69 7.32-.49-4.12 1.89-8.36 1-12.24-4.07 2.14-2.92 7.86-3.08 11.62-.32-3.75.28-6.43-3.11-8.26-4-2.15 5 1.77-.05 6.94-.5.17-2.35-5.12-2.78-5.1-.07.25 1.61 5.33 1.45 5.53-1.06-2.28-3.75-.84-3.45-3.79-1.41 2 3.83 3.5-.33 6.34-.27.18-1-3.3-1.21-3.27s-.28 3.37-.45 4c-.33 0-.66.11-1 .16h-.3c-.9-3.69-1.42-6.66.78-9.57 3.84-5 5.22-.31 9.22-4.86-4.68 1.37-5.79.44-8.32 1.9a6.64 6.64 0 00-3.37 4.16c-1.18 2.89-1.11 6.55-2.77 8.78-1.11-7.16.52-17-6-21.87 3.67 5.37 3.89 10.7 3.91 17.56-.57-.22-.85-3.47-1.56-3.83-.6 2.38 1.1 7-1.3 8.12-1.07-3.76-.17-7.61-1.1-11.33-.07.68-.64 2.29-.8 3.22-.67-4.48 0-4.81 2.76-8.6-1.67 1.32-4 2-4.47 4.1-1.36 5.7-1 5.36-.92 6.31-1.11-4.12-2.75-8-7.35-9 3.82 2.74 2.63 1.68 3.61 5.71.75 3.07 3.42 5.77 3.57 8.88-1.34-.53-2.73-1.34-4.09-2 .9 1.31 3.64 4 2.87 9a37.48 37.48 0 00-4.37 3.76 35.37 35.37 0 00-8.08 12.2 38 38 0 00-2.63 13.85 38.58 38.58 0 002.63 13.93 35.07 35.07 0 008.08 12.29 37 37 0 0052.44 0l5.11-5.11-10.39-10.39z" class="corder-logo-teal"/>
    <path d="M457.38 80.88s-6.9-7.53-13.63 3M457.41 81.55s-3.09 9.73-13.63 3" class="corder-logo-green1"/>
    <path d="M512.16 30.34s-4.14-1.31-4.39 4M512.31 30.58s.93 4.25-4.39 4" class="corder-logo-teal"/>
  </g>
  <g id="Cpath">
    <path d="M61.11 78.71a80.08 80.08 0 0127.2-18.07 82.06 82.06 0 0161.7 0 80.27 80.27 0 0127.2 18.07L188.52 90l-22.63 23-11.68-11.32a49 49 0 00-16.43-10.95 49.32 49.32 0 00-37.24 0 48.8 48.8 0 00-16.43 10.95 44.94 44.94 0 00-11 16.07 49.29 49.29 0 000 37.23 48.41 48.41 0 0011 16.43 47.77 47.77 0 0035.05 14.61 50.7 50.7 0 0019-3.65 45.05 45.05 0 0016.07-11l11.68-11.32 22.63 23-11.31 11.32A80.12 80.12 0 01150 212.51a81.93 81.93 0 01-61.7 0 79.93 79.93 0 01-27.2-18.07 78.09 78.09 0 01-17.89-27 84.4 84.4 0 010-61.7 78.22 78.22 0 0117.89-27" class="corder-logo-teal"/>
    <path fill="url(#corderLogoGradient)" d="M61.11 78.71a80.08 80.08 0 0127.2-18.07 82.06 82.06 0 0161.7 0 80.27 80.27 0 0127.2 18.07L188.52 90l-22.63 23-11.68-11.32a49 49 0 00-16.43-10.95 49.32 49.32 0 00-37.24 0 48.8 48.8 0 00-16.43 10.95 44.94 44.94 0 00-11 16.07 49.29 49.29 0 000 37.23 48.41 48.41 0 0011 16.43 47.77 47.77 0 0035.05 14.61 50.7 50.7 0 0019-3.65 45.05 45.05 0 0016.07-11l11.68-11.32 22.63 23-11.31 11.32A80.12 80.12 0 01150 212.51a81.93 81.93 0 01-61.7 0 79.93 79.93 0 01-27.2-18.07 78.09 78.09 0 01-17.89-27 84.4 84.4 0 010-61.7 78.22 78.22 0 0117.89-27"/>
  </g>
</svg>
